#!OML:ASF F:\VICON\USERDATA\INSTALL\rory3\rory3.ASF
:FULLY-SPECIFIED
:DEGREES
335
root 0.555506 18.4419 -13.9367 7.75455 -6.12512 2.39941
lowerback 6.35155 -0.283759 -1.07894
upperback -1.76327 -0.357551 2.18064
thorax -5.37978 -0.103141 2.91619
lowerneck -17.6281 -2.57623 -9.56863
upperneck 12.4915 -2.16216 6.43657
head 6.87724 -0.933392 3.42084
rclavicle -1.59028e-015 1.82882e-014
rhumerus -39.0212 -17.937 -73.4044
rradius 30.1147
rwrist 6.34193
rhand -14.6153 8.96998
rfingers 7.12502
rthumb 11.5358 -20.6926
lclavicle -1.59028e-015 1.82882e-014
lhumerus -41.1006 17.9895 79.3089
lradius 31.6605
lwrist -6.96878
lhand -22.9674 18.3243
lfingers 7.12502
lthumb 3.47453 48.2757
rfemur -9.937 5.23254 17.7056
rtibia 22.7246
rfoot -2.61759 -9.47069
rtoes 4.55608
lfemur -8.17667 -2.1825 -20.2791
ltibia 17.5865
lfoot -0.986359 2.12105
ltoes -11.1688
336
root 0.555039 18.4297 -13.9407 7.74144 -6.07965 2.38562
lowerback 6.32453 -0.323864 -1.13001
upperback -1.7615 -0.414579 2.19795
thorax -5.35884 -0.129652 2.96891
lowerneck -17.6573 -2.49406 -9.78718
upperneck 12.3763 -2.02409 6.64662
head 6.83763 -0.857293 3.54047
rclavicle -7.15625e-015 -7.15625e-015
rhumerus -39.2271 -18.0891 -73.2136
rradius 29.874
rwrist 6.09973
rhand -14.4261 10.0969
rfingers 7.12502
rthumb 11.7182 -19.5554
lclavicle -7.15625e-015 -7.15625e-015
lhumerus -41.3884 18.3754 79.0374
lradius 31.279
lwrist -6.60536
lhand -22.7023 19.1694
lfingers 7.12502
lthumb 3.73055 49.1165
rfemur -9.88064 4.93579 17.7366
rtibia 22.6672
rfoot -2.75518 -9.3002
rtoes 3.97059
lfemur -8.08101 -2.16735 -20.2754
ltibia 17.6285
lfoot -1.36064 2.24907
ltoes -10.6675
337
root 0.55292 18.4177 -13.9414 7.79083 -6.06775 2.23064
lowerback 6.14982 -0.328965 -1.00973
upperback -1.66133 -0.412939 2.19337
thorax -5.15522 -0.136238 2.89211
lowerneck -18.0335 -2.52843 -9.81869
upperneck 12.3938 -2.04048 6.73436
head 6.90904 -0.853065 3.57356
rclavicle 3.57812e-014 -1.35174e-014
rhumerus -39.2876 -18.4332 -73.1175
rradius 29.5322
rwrist 5.74998
rhand -14.7502 11.8128
rfingers 7.12502
rthumb 11.4057 -17.857
lclavicle 3.57812e-014 -1.35174e-014
lhumerus -41.4317 18.6973 78.762
lradius 30.8188
lwrist -6.42662
lhand -22.776 19.2042
lfingers 7.12502
lthumb 3.65939 49.1526
rfemur -9.88731 4.82127 17.9184
rtibia 22.6029
rfoot -2.8065 -9.19414
rtoes 3.73582
lfemur -8.05685 -2.14408 -20.1251
ltibia 17.6453
lfoot -1.71458 2.40711
ltoes -10.6245
338
root 0.550108 18.4063 -13.9364 7.70257 -6.04569 2.22783
lowerback 6.05328 -0.293455 -1.01836
upperback -1.54672 -0.37092 2.12526
thorax -4.98312 -0.119282 2.81873
lowerneck -18.5179 -2.75594 -9.68966
upperneck 12.9435 -2.32501 6.5701
head 7.19095 -0.996463 3.4717
rclavicle -1.04362e-014 7.15625e-015
rhumerus -39.4132 -18.6223 -73.1338
rradius 29.5175
rwrist 5.46569
rhand -15.0236 12.4166
rfingers 7.12502
rthumb 11.142 -17.2675
lclavicle -1.04362e-014 7.15625e-015
lhumerus -41.3991 19.0425 78.4456
lradius 30.1195
lwrist -6.39363
lhand -22.8942 18.7195
lfingers 7.12502
lthumb 3.54523 48.6698
rfemur -9.73636 4.80253 17.9478
rtibia 22.5714
rfoot -2.96878 -9.23147
rtoes 3.90594
lfemur -7.85716 -2.28475 -20.152
ltibia 17.609
lfoot -2.01869 2.70014
ltoes -10.4865
339
root 0.549502 18.3877 -13.9354 7.60617 -6.05975 2.23517
lowerback 5.94485 -0.262753 -1.00808
upperback -1.42124 -0.334129 2.04934
thorax -4.79289 -0.105768 2.72717
lowerneck -18.8196 -3.03451 -9.60886
upperneck 13.5755 -2.67643 6.34503
head 7.47566 -1.18358 3.34787
rclavicle 2.78299e-015 1.82882e-014
rhumerus -39.4036 -18.8577 -73.1876
rradius 29.5064
rwrist 5.49482
rhand -15.1928 12.3573
rfingers 7.12502
rthumb 10.9788 -17.3357
lclavicle 2.78299e-015 1.82882e-014
lhumerus -41.3632 19.4595 78.0902
lradius 29.5151
lwrist -6.38223
lhand -22.6621 18.2955
lfingers 7.12502
lthumb 3.76939 48.2419
rfemur -9.59059 4.78277 17.9587
rtibia 22.5492
rfoot -3.22149 -9.25288
rtoes 3.75724
lfemur -7.67699 -2.41854 -20.1955
ltibia 17.5253
lfoot -2.29328 2.99194
ltoes -10.3308
340
root 0.54776 18.3715 -13.9361 7.58341 -5.94518 2.15142
lowerback 5.77743 -0.288099 -0.93412
upperback -1.33334 -0.363876 2.03949
thorax -4.60506 -0.125568 2.67504
lowerneck -18.8701 -3.1691 -9.61718
upperneck 13.6759 -2.85079 6.31775
head 7.53198 -1.27009 3.31969
rclavicle 1.18277e-014 -4.37326e-014
rhumerus -39.3937 -19.0295 -73.1754
rradius 29.414
rwrist 5.57527
rhand -15.1935 11.9284
rfingers 7.12502
rthumb 10.9781 -17.7645
lclavicle 1.18277e-014 -4.37326e-014
lhumerus -41.3331 19.9494 77.7493
lradius 29.0423
lwrist -6.55526
lhand -22.2604 18.7292
lfingers 7.12502
lthumb 4.15729 48.6684
rfemur -9.47869 4.72074 18.0883
rtibia 22.5734
rfoot -3.63788 -9.33309
rtoes 3.6322
lfemur -7.5621 -2.45292 -20.1011
ltibia 17.4008
lfoot -2.66477 3.06956
ltoes -10.0207
341
root 0.546598 18.3553 -13.931 7.60381 -5.84857 2.03089
lowerback 5.59418 -0.319504 -0.909706
upperback -1.41147 -0.400639 2.10003
thorax -4.58047 -0.143272 2.72641
lowerneck -18.5374 -3.08785 -9.67486
upperneck 13.5077 -2.76803 6.405
head 7.41531 -1.22885 3.36749
rclavicle 1.61016e-014 3.10104e-014
rhumerus -39.75 -18.8387 -73.0781
rradius 29.4567
rwrist 5.49202
rhand -15.0907 11.5654
rfingers 7.12502
rthumb 11.0773 -18.1223
lclavicle 1.61016e-014 3.10104e-014
lhumerus -41.7185 20.3076 77.4174
lradius 28.6845
lwrist -6.77411
lhand -21.9815 20.0779
lfingers 7.12502
lthumb 4.42666 50.0117
rfemur -9.4253 4.65548 18.2354
rtibia 22.6466
rfoot -4.09618 -9.42719
rtoes 3.11863
lfemur -7.40136 -2.56903 -19.9812
ltibia 17.2742
lfoot -3.19876 3.32418
ltoes -9.42744
342
root 0.545267 18.3322 -13.9316 7.59703 -6.05253 1.92987
lowerback 5.54575 -0.268726 -0.965203
upperback -1.5608 -0.333196 2.14418
thorax -4.71194 -0.104898 2.79852
lowerneck -18.1572 -2.995 -9.95995
upperneck 13.5015 -2.66308 6.73239
head 7.3485 -1.16922 3.53746
rclavicle 9.93923e-016 3.18055e-015
rhumerus -40.2946 -18.4667 -72.9868
rradius 29.6449
rwrist 5.30248
rhand -14.7244 11.7302
rfingers 7.12502
rthumb 11.4306 -17.9382
lclavicle 9.93923e-016 3.18055e-015
lhumerus -42.369 20.719 76.9253
lradius 28.2767
lwrist -6.98991
lhand -22.0764 20.0073
lfingers 7.12502
lthumb 4.33502 49.9429
rfemur -9.47095 4.7423 18.3143
rtibia 22.7387
rfoot -4.36617 -9.35592
rtoes 2.67671
lfemur -7.17688 -2.48486 -19.9276
ltibia 17.14
lfoot -3.84412 3.66747
ltoes -8.86065
